<?xml version="1.0" encoding="utf-8"?>
<!-- Generator: Adobe Illustrator 24.0.1, SVG Export Plug-In . SVG Version: 6.00 Build 0)  -->
<svg version="1.1" id="Layer_1" xmlns="http://www.w3.org/2000/svg" xmlns:xlink="http://www.w3.org/1999/xlink" x="0px" y="0px"
	 viewBox="0 0 500 500" style="enable-background:new 0 0 500 500;" xml:space="preserve">
<g>
	<path d="M130.4,402.4h-40V77.3h127c49.6,0,89.9,40.3,89.9,89.9s-40.3,89.9-89.9,89.9h-32.8v-40h32.8c27.5,0,49.9-22.4,49.9-49.9
		s-22.4-49.9-49.9-49.9h-87V402.4z"/>
</g>
<path d="M427.3,120.2H385l-1,3h0l-50.3,146.9h-148l74,162.2c5.4,11.9,17.2,19.5,30.3,19.5c0.3,0,0.7,0,1,0
	c13.4-0.4,25.2-8.8,30.1-21.3l0.1-0.4l101-295.1L427.3,120.2z M289,400.4l-41.2-90.2h72L289,400.4z"/>
</svg>
